<svg xmlns="http://www.w3.org/2000/svg" version="1.1" xmlns:xlink="http://www.w3.org/1999/xlink" xmlns:svgjs="http://svgjs.dev/svgjs" width="128" height="128" viewBox="0 0 128 128"><g transform="matrix(0.8046875,0,0,0.8046875,12.760752631578946,24.436310254646827)"><svg viewBox="0 0 95 74" data-background-color="#ffffff" preserveAspectRatio="xMidYMid meet" height="99" width="128" xmlns="http://www.w3.org/2000/svg" xmlns:xlink="http://www.w3.org/1999/xlink"><g id="tight-bounds" transform="matrix(1,0,0,1,-0.24049999999999727,-0.24926259998183298)"><svg viewBox="0 0 95.481 74.49852519996365" height="74.49852519996365" width="95.481"><g><svg viewBox="0 0 95.481 74.49852519996365" height="74.49852519996365" width="95.481"><g><svg viewBox="0 0 95.481 74.49852519996365" height="74.49852519996365" width="95.481"><g id="textblocktransform"><svg viewBox="0 0 95.481 74.49852519996365" height="74.49852519996365" width="95.481" id="textblock"><g><svg viewBox="0 0 95.481 74.49852519996365" height="74.49852519996365" width="95.481"><g><svg viewBox="0 0 95.481 74.49852519996365" height="74.49852519996365" width="95.481"><g><svg xmlns="http://www.w3.org/2000/svg" xmlns:xlink="http://www.w3.org/1999/xlink" version="1.1" x="0" y="0" viewBox="5.992000000000004 15.663 88.01599999999999 68.674" enable-background="new 0 0 100 100" xml:space="preserve" height="74.49852519996365" width="95.481" class="icon-icon-0" data-fill-palette-color="accent" id="icon-0"><g fill="#096a2e" data-fill-palette-color="accent"><g fill="#096a2e" data-fill-palette-color="accent"><polygon fill-rule="evenodd" clip-rule="evenodd" points="23.656,31.452 40.291,49.08 40.291,84.088 6.093,84.088 6.093,49.08     23.656,31.452   " fill="#096a2e" data-fill-palette-color="accent"></polygon><path d="M40.392 84.189h-34.4V49.038l0.029-0.03 17.636-17.702 0.072 0.076 16.663 17.657V84.189zM6.194 83.986h33.995V49.12L23.654 31.598 6.194 49.121V83.986z" fill="#096a2e" data-fill-palette-color="accent"></path></g><polygon fill-rule="evenodd" clip-rule="evenodd" points="76.54,15.663 42.773,49.08 42.773,84.336 59.16,67.701 59.16,32.865    76.54,49.328 76.54,84.337 94.008,67.453 94.008,32.693 76.54,15.663  " fill="#096a2e" data-fill-palette-color="accent"></polygon></g></svg></g></svg></g></svg></g></svg></g></svg></g></svg></g><defs></defs></svg><rect width="95.481" height="74.49852519996365" fill="none" stroke="none" visibility="hidden"></rect></g></svg></g></svg>